<svg width="58" height="49" viewBox="0 0 58 49" fill="none" xmlns="http://www.w3.org/2000/svg">
<path d="M29 19C27.8449 19.001 26.7075 18.7157 25.6896 18.1697C24.6717 17.6237 23.805 16.8339 23.167 15.871L24.833 14.764C25.2891 15.4517 25.9082 16.0159 26.6353 16.4062C27.3624 16.7964 28.1748 17.0007 29 17.0007C29.8252 17.0007 30.6376 16.7964 31.3647 16.4062C32.0917 16.0159 32.7109 15.4517 33.167 14.764L34.833 15.871C34.195 16.8339 33.3282 17.6237 32.3103 18.1697C31.2924 18.7157 30.1551 19.001 29 19Z" fill="white"/>
<path d="M33 8.00001C32.6044 8.00001 32.2178 8.11731 31.8889 8.33707C31.56 8.55683 31.3036 8.86919 31.1522 9.23464C31.0009 9.6001 30.9613 10.0022 31.0384 10.3902C31.1156 10.7782 31.3061 11.1345 31.5858 11.4142C31.8655 11.6939 32.2219 11.8844 32.6098 11.9616C32.9978 12.0388 33.3999 11.9991 33.7654 11.8478C34.1308 11.6964 34.4432 11.44 34.6629 11.1112C34.8827 10.7823 35 10.3956 35 10C35.0027 9.73662 34.9528 9.47535 34.8532 9.23149C34.7536 8.98763 34.6064 8.76609 34.4202 8.57984C34.2339 8.39358 34.0124 8.24637 33.7685 8.1468C33.5247 8.04724 33.2634 7.99734 33 8.00001Z" fill="white"/>
<path d="M25 8.00001C24.6044 8.00001 24.2178 8.11731 23.8889 8.33707C23.56 8.55683 23.3036 8.86919 23.1522 9.23464C23.0009 9.6001 22.9613 10.0022 23.0384 10.3902C23.1156 10.7782 23.3061 11.1345 23.5858 11.4142C23.8655 11.6939 24.2219 11.8844 24.6098 11.9616C24.9978 12.0388 25.3999 11.9991 25.7654 11.8478C26.1308 11.6964 26.4432 11.44 26.6629 11.1112C26.8827 10.7823 27 10.3956 27 10C27.0027 9.73662 26.9528 9.47535 26.8532 9.23149C26.7536 8.98763 26.6064 8.76609 26.4202 8.57984C26.2339 8.39358 26.0124 8.24637 25.7685 8.1468C25.5247 8.04724 25.2634 7.99734 25 8.00001Z" fill="white"/>
<path d="M30.736 30L29 29L33 22H39C39.2628 22.0004 39.523 21.9489 39.7658 21.8486C40.0087 21.7482 40.2293 21.6009 40.4151 21.4151C40.6009 21.2293 40.7482 21.0087 40.8486 20.7658C40.9489 20.523 41.0004 20.2628 41 20V6C41.0004 5.73725 40.9489 5.477 40.8486 5.23417C40.7482 4.99134 40.6009 4.7707 40.4151 4.58491C40.2293 4.39911 40.0087 4.25181 39.7658 4.15144C39.523 4.05107 39.2628 3.99961 39 4H19C18.7372 3.99961 18.477 4.05107 18.2342 4.15144C17.9913 4.25181 17.7707 4.39911 17.5849 4.58491C17.3991 4.7707 17.2518 4.99134 17.1514 5.23417C17.0511 5.477 16.9996 5.73725 17 6V20C16.9996 20.2628 17.0511 20.523 17.1514 20.7658C17.2518 21.0087 17.3991 21.2293 17.5849 21.4151C17.7707 21.6009 17.9913 21.7482 18.2342 21.8486C18.477 21.9489 18.7372 22.0004 19 22H28V24H19C17.9391 24 16.9217 23.5786 16.1716 22.8284C15.4214 22.0783 15 21.0609 15 20V6C14.9999 5.47468 15.1032 4.95447 15.3042 4.46911C15.5052 3.98375 15.7998 3.54274 16.1713 3.17128C16.5427 2.79982 16.9837 2.50519 17.4691 2.30421C17.9545 2.10324 18.4747 1.99987 19 2H39C39.5253 1.99987 40.0455 2.10324 40.5309 2.30421C41.0163 2.50519 41.4573 2.79982 41.8287 3.17128C42.2002 3.54274 42.4948 3.98375 42.6958 4.46911C42.8968 4.95447 43.0001 5.47468 43 6V20C43 21.0609 42.5786 22.0783 41.8284 22.8284C41.0783 23.5786 40.0609 24 39 24H34.165L30.736 30Z" fill="white"/>
<path d="M1.95801 44.0137H5.18555V45H0.722656V37.8906H1.95801V44.0137ZM7.28027 45H6.09375V39.7168H7.28027V45ZM6.02051 38.3447C6.02051 38.1624 6.07747 38.0111 6.19141 37.8906C6.30859 37.7702 6.47461 37.71 6.68945 37.71C6.9043 37.71 7.07031 37.7702 7.1875 37.8906C7.30469 38.0111 7.36328 38.1624 7.36328 38.3447C7.36328 38.5238 7.30469 38.6735 7.1875 38.7939C7.07031 38.9111 6.9043 38.9697 6.68945 38.9697C6.47461 38.9697 6.30859 38.9111 6.19141 38.7939C6.07747 38.6735 6.02051 38.5238 6.02051 38.3447ZM10.4395 43.4961L11.5576 39.7168H12.7832L10.9521 45H9.92188L8.07617 39.7168H9.30664L10.4395 43.4961ZM15.7861 45.0977C15.0342 45.0977 14.4238 44.8617 13.9551 44.3896C13.4896 43.9144 13.2568 43.2829 13.2568 42.4951V42.3486C13.2568 41.8213 13.3577 41.3509 13.5596 40.9375C13.7646 40.5208 14.0511 40.1969 14.4189 39.9658C14.7868 39.7347 15.1969 39.6191 15.6494 39.6191C16.3688 39.6191 16.9238 39.8486 17.3145 40.3076C17.7083 40.7666 17.9053 41.416 17.9053 42.2559V42.7344H14.4531C14.4889 43.1706 14.6338 43.5156 14.8877 43.7695C15.1449 44.0234 15.4671 44.1504 15.8545 44.1504C16.3981 44.1504 16.8408 43.9307 17.1826 43.4912L17.8223 44.1016C17.6107 44.4173 17.3275 44.6631 16.9727 44.8389C16.6211 45.0114 16.2256 45.0977 15.7861 45.0977ZM15.6445 40.5713C15.319 40.5713 15.0553 40.6852 14.8535 40.9131C14.6549 41.141 14.528 41.4583 14.4727 41.8652H16.7334V41.7773C16.7074 41.3802 16.6016 41.0807 16.416 40.8789C16.2305 40.6738 15.9733 40.5713 15.6445 40.5713ZM23.4912 44.1504C23.7874 44.1504 24.0332 44.0641 24.2285 43.8916C24.4238 43.7191 24.528 43.5059 24.541 43.252H25.6592C25.6462 43.5807 25.5436 43.8883 25.3516 44.1748C25.1595 44.458 24.8991 44.6826 24.5703 44.8486C24.2415 45.0146 23.8867 45.0977 23.5059 45.0977C22.7669 45.0977 22.181 44.8584 21.748 44.3799C21.3151 43.9014 21.0986 43.2406 21.0986 42.3975V42.2754C21.0986 41.4714 21.3135 40.8285 21.7432 40.3467C22.1729 39.8617 22.7588 39.6191 23.501 39.6191C24.1292 39.6191 24.6403 39.8031 25.0342 40.1709C25.4313 40.5355 25.6396 41.0156 25.6592 41.6113H24.541C24.528 41.3086 24.4238 41.0596 24.2285 40.8643C24.0365 40.6689 23.7907 40.5713 23.4912 40.5713C23.1071 40.5713 22.8109 40.7113 22.6025 40.9912C22.3942 41.2679 22.2884 41.6895 22.2852 42.2559V42.4463C22.2852 43.0192 22.3877 43.4473 22.5928 43.7305C22.8011 44.0104 23.1006 44.1504 23.4912 44.1504ZM27.7246 40.293C28.112 39.8438 28.6019 39.6191 29.1943 39.6191C30.3206 39.6191 30.8919 40.262 30.9082 41.5479V45H29.7217V41.5918C29.7217 41.2272 29.6419 40.9701 29.4824 40.8203C29.3262 40.6673 29.0951 40.5908 28.7891 40.5908C28.3138 40.5908 27.959 40.8024 27.7246 41.2256V45H26.5381V37.5H27.7246V40.293ZM35.2686 45C35.2165 44.8991 35.1709 44.7347 35.1318 44.5068C34.7542 44.9007 34.292 45.0977 33.7451 45.0977C33.2145 45.0977 32.7816 44.9463 32.4463 44.6436C32.111 44.3408 31.9434 43.9665 31.9434 43.5205C31.9434 42.9574 32.1517 42.526 32.5684 42.2266C32.9883 41.9238 33.5872 41.7725 34.3652 41.7725H35.0928V41.4258C35.0928 41.1523 35.0163 40.9342 34.8633 40.7715C34.7103 40.6055 34.4775 40.5225 34.165 40.5225C33.8949 40.5225 33.6735 40.5908 33.501 40.7275C33.3285 40.861 33.2422 41.0319 33.2422 41.2402H32.0557C32.0557 40.9505 32.1517 40.6803 32.3438 40.4297C32.5358 40.1758 32.7962 39.9772 33.125 39.834C33.457 39.6908 33.8265 39.6191 34.2334 39.6191C34.8519 39.6191 35.3451 39.7754 35.7129 40.0879C36.0807 40.3971 36.2695 40.8333 36.2793 41.3965V43.7793C36.2793 44.2546 36.346 44.6338 36.4795 44.917V45H35.2686ZM33.9648 44.1455C34.1992 44.1455 34.4189 44.0885 34.624 43.9746C34.8324 43.8607 34.9886 43.7077 35.0928 43.5156V42.5195H34.4531C34.0137 42.5195 33.6833 42.596 33.4619 42.749C33.2406 42.902 33.1299 43.1185 33.1299 43.3984C33.1299 43.6263 33.2048 43.8086 33.3545 43.9453C33.5075 44.0788 33.7109 44.1455 33.9648 44.1455ZM39.0088 38.4326V39.7168H39.9414V40.5957H39.0088V43.5449C39.0088 43.7467 39.0479 43.8932 39.126 43.9844C39.2074 44.0723 39.3506 44.1162 39.5557 44.1162C39.6924 44.1162 39.8307 44.0999 39.9707 44.0674V44.9854C39.7005 45.0602 39.4401 45.0977 39.1895 45.0977C38.278 45.0977 37.8223 44.5947 37.8223 43.5889V40.5957H36.9531V39.7168H37.8223V38.4326H39.0088ZM46.4795 45H45.2979V39.292L43.5547 39.8877V38.8867L46.3281 37.8662H46.4795V45ZM51.3281 42.4561H48.7646V41.499H51.3281V42.4561ZM55.4443 45H54.2627V39.292L52.5195 39.8877V38.8867L55.293 37.8662H55.4443V45Z" fill="white"/>
</svg>
